# xmcd
# Copyright (C) 1995-1998 Ti Kan
#
# Track frame offsets:
#       150
#       21207
#       50957
#       79621
#       124888
#       153652
#
# Disc length: 2839 seconds
#
# Revision: 0
# Processed by: cddbd v1.5.2PL0 Copyright (c) Steve Scherf et al.
# Submitted via: CD-Transfer v1.0
#
DISCID=4c0b1506
DTITLE=Nadia Benyoucef - 
DYEAR=1900
DGENRE=
TTITLE0=*ebkawe 3la Kheir
TTITLE1=*rana Jinak
TTITLE2=*cheraa Allah Ya Lahbeb
TTITLE3=*mal Hbibi Malou
TTITLE4=*taalila/ Aaris We Aaroussa
TTITLE5=*insiraf/ Ahrak Dheni Mahedjti
EXTD=
EXTT0=
EXTT1=
EXTT2=
EXTT3=
EXTT4=
EXTT5=
PLAYORDER=
